<svg width="30" height="34" viewBox="0 0 30 34" fill="none" xmlns="http://www.w3.org/2000/svg">
<path d="M17 2C17 0.89543 16.1046 0 15 0C13.8954 0 13 0.89543 13 2L17 2ZM13.5858 33.4142C14.3668 34.1953 15.6332 34.1953 16.4142 33.4142L29.1421 20.6863C29.9232 19.9052 29.9232 18.6389 29.1421 17.8579C28.3611 17.0768 27.0948 17.0768 26.3137 17.8579L15 29.1716L3.68629 17.8579C2.90524 17.0768 1.63891 17.0768 0.857864 17.8579C0.0768156 18.6389 0.0768156 19.9052 0.857864 20.6863L13.5858 33.4142ZM13 2L13 32H17V2L13 2Z" fill="black"/>
</svg>
